# xmcd CD database file
#
# Track frame offsets:
#	182
#	17802
#	42102
#
# Disc length: 942 seconds
#
# Revision: 5
# Processed by: cddbd v1.5.2PL0 Copyright (c) Steve Scherf et al.
# Submitted via: CDex 1.51
#
DISCID=1a03ac03
DTITLE=Beats International - Burundi Blues
DYEAR=1990
DGENRE=
TTITLE0=Burundi Blues
TTITLE1=Burundi Dub
TTITLE2=Theme From The Deerstalker
EXTD=YEAR: 1990
EXTT0=
EXTT1=
EXTT2=
PLAYORDER=
